<mxfile host="app.diagrams.net" agent="Mozilla/5.0 (Windows NT 10.0; Win64; x64) AppleWebKit/537.36 (KHTML, like Gecko) Chrome/130.0.0.0 Safari/537.36" version="26.2.9">
  <diagram name="PÃ¡gina-1" id="r2bvop4C-KoJWWGskxlp">
    <mxGraphModel dx="1108" dy="597" grid="1" gridSize="10" guides="1" tooltips="1" connect="1" arrows="1" fold="1" page="1" pageScale="1" pageWidth="827" pageHeight="1169" math="0" shadow="0">
      <root>
        <mxCell id="0" />
        <mxCell id="1" parent="0" />
        <mxCell id="rAoNcaFQ0cFfPluoz4KQ-1" value="System" style="shape=umlFrame;whiteSpace=wrap;html=1;pointerEvents=0;" parent="1" vertex="1">
          <mxGeometry x="18" y="80" width="662" height="480" as="geometry" />
        </mxCell>
        <mxCell id="rAoNcaFQ0cFfPluoz4KQ-11" value="&lt;p style=&quot;margin:0px;margin-top:4px;text-align:center;&quot;&gt;&lt;i&gt;&amp;lt;&amp;lt;Interface&amp;gt;&amp;gt;&lt;/i&gt;&lt;br&gt;&lt;b&gt;GamePrototype&lt;/b&gt;&lt;/p&gt;&lt;hr size=&quot;1&quot; style=&quot;border-style:solid;&quot;&gt;&lt;p style=&quot;margin:0px;margin-left:4px;&quot;&gt;String level&lt;/p&gt;&lt;hr size=&quot;1&quot; style=&quot;border-style:solid;&quot;&gt;&lt;p style=&quot;margin:0px;margin-left:4px;&quot;&gt;+ clone(): GameProtoype&lt;br&gt;&lt;/p&gt;&lt;p style=&quot;margin:0px;margin-left:4px;&quot;&gt;+ play(): void&lt;/p&gt;" style="verticalAlign=top;align=left;overflow=fill;html=1;whiteSpace=wrap;" parent="1" vertex="1">
          <mxGeometry x="152" y="110" width="190" height="100" as="geometry" />
        </mxCell>
        <mxCell id="rAoNcaFQ0cFfPluoz4KQ-16" value="AdventureGame" style="swimlane;fontStyle=1;align=center;verticalAlign=top;childLayout=stackLayout;horizontal=1;startSize=26;horizontalStack=0;resizeParent=1;resizeParentMax=0;resizeLast=0;collapsible=1;marginBottom=0;whiteSpace=wrap;html=1;" parent="1" vertex="1">
          <mxGeometry x="62" y="250" width="160" height="112" as="geometry" />
        </mxCell>
        <mxCell id="rAoNcaFQ0cFfPluoz4KQ-17" value="+ String level" style="text;strokeColor=none;fillColor=none;align=left;verticalAlign=top;spacingLeft=4;spacingRight=4;overflow=hidden;rotatable=0;points=[[0,0.5],[1,0.5]];portConstraint=eastwest;whiteSpace=wrap;html=1;" parent="rAoNcaFQ0cFfPluoz4KQ-16" vertex="1">
          <mxGeometry y="26" width="160" height="26" as="geometry" />
        </mxCell>
        <mxCell id="rAoNcaFQ0cFfPluoz4KQ-18" value="" style="line;strokeWidth=1;fillColor=none;align=left;verticalAlign=middle;spacingTop=-1;spacingLeft=3;spacingRight=3;rotatable=0;labelPosition=right;points=[];portConstraint=eastwest;strokeColor=inherit;" parent="rAoNcaFQ0cFfPluoz4KQ-16" vertex="1">
          <mxGeometry y="52" width="160" height="8" as="geometry" />
        </mxCell>
        <mxCell id="rAoNcaFQ0cFfPluoz4KQ-19" value="+ clone(): AdventureGame" style="text;strokeColor=none;fillColor=none;align=left;verticalAlign=top;spacingLeft=4;spacingRight=4;overflow=hidden;rotatable=0;points=[[0,0.5],[1,0.5]];portConstraint=eastwest;whiteSpace=wrap;html=1;" parent="rAoNcaFQ0cFfPluoz4KQ-16" vertex="1">
          <mxGeometry y="60" width="160" height="26" as="geometry" />
        </mxCell>
        <mxCell id="9-CS1UIOnBhrdMq_kwQL-21" value="+ play(): void" style="text;strokeColor=none;fillColor=none;align=left;verticalAlign=top;spacingLeft=4;spacingRight=4;overflow=hidden;rotatable=0;points=[[0,0.5],[1,0.5]];portConstraint=eastwest;whiteSpace=wrap;html=1;" vertex="1" parent="rAoNcaFQ0cFfPluoz4KQ-16">
          <mxGeometry y="86" width="160" height="26" as="geometry" />
        </mxCell>
        <mxCell id="rAoNcaFQ0cFfPluoz4KQ-20" value="RacingGame" style="swimlane;fontStyle=1;align=center;verticalAlign=top;childLayout=stackLayout;horizontal=1;startSize=26;horizontalStack=0;resizeParent=1;resizeParentMax=0;resizeLast=0;collapsible=1;marginBottom=0;whiteSpace=wrap;html=1;" parent="1" vertex="1">
          <mxGeometry x="262" y="250" width="160" height="112" as="geometry" />
        </mxCell>
        <mxCell id="rAoNcaFQ0cFfPluoz4KQ-21" value="+ String level" style="text;strokeColor=none;fillColor=none;align=left;verticalAlign=top;spacingLeft=4;spacingRight=4;overflow=hidden;rotatable=0;points=[[0,0.5],[1,0.5]];portConstraint=eastwest;whiteSpace=wrap;html=1;" parent="rAoNcaFQ0cFfPluoz4KQ-20" vertex="1">
          <mxGeometry y="26" width="160" height="26" as="geometry" />
        </mxCell>
        <mxCell id="rAoNcaFQ0cFfPluoz4KQ-22" value="" style="line;strokeWidth=1;fillColor=none;align=left;verticalAlign=middle;spacingTop=-1;spacingLeft=3;spacingRight=3;rotatable=0;labelPosition=right;points=[];portConstraint=eastwest;strokeColor=inherit;" parent="rAoNcaFQ0cFfPluoz4KQ-20" vertex="1">
          <mxGeometry y="52" width="160" height="8" as="geometry" />
        </mxCell>
        <mxCell id="rAoNcaFQ0cFfPluoz4KQ-23" value="+ clone(): RancingGame" style="text;strokeColor=none;fillColor=none;align=left;verticalAlign=top;spacingLeft=4;spacingRight=4;overflow=hidden;rotatable=0;points=[[0,0.5],[1,0.5]];portConstraint=eastwest;whiteSpace=wrap;html=1;" parent="rAoNcaFQ0cFfPluoz4KQ-20" vertex="1">
          <mxGeometry y="60" width="160" height="26" as="geometry" />
        </mxCell>
        <mxCell id="9-CS1UIOnBhrdMq_kwQL-22" value="+ play(): void" style="text;strokeColor=none;fillColor=none;align=left;verticalAlign=top;spacingLeft=4;spacingRight=4;overflow=hidden;rotatable=0;points=[[0,0.5],[1,0.5]];portConstraint=eastwest;whiteSpace=wrap;html=1;" vertex="1" parent="rAoNcaFQ0cFfPluoz4KQ-20">
          <mxGeometry y="86" width="160" height="26" as="geometry" />
        </mxCell>
        <mxCell id="rAoNcaFQ0cFfPluoz4KQ-24" style="edgeStyle=orthogonalEdgeStyle;rounded=0;orthogonalLoop=1;jettySize=auto;html=1;entryX=0.46;entryY=1.016;entryDx=0;entryDy=0;entryPerimeter=0;" parent="1" source="rAoNcaFQ0cFfPluoz4KQ-16" target="rAoNcaFQ0cFfPluoz4KQ-11" edge="1">
          <mxGeometry relative="1" as="geometry" />
        </mxCell>
        <mxCell id="rAoNcaFQ0cFfPluoz4KQ-25" style="edgeStyle=orthogonalEdgeStyle;rounded=0;orthogonalLoop=1;jettySize=auto;html=1;entryX=0.46;entryY=1.016;entryDx=0;entryDy=0;entryPerimeter=0;" parent="1" source="rAoNcaFQ0cFfPluoz4KQ-20" target="rAoNcaFQ0cFfPluoz4KQ-11" edge="1">
          <mxGeometry relative="1" as="geometry" />
        </mxCell>
        <mxCell id="9-CS1UIOnBhrdMq_kwQL-13" style="edgeStyle=orthogonalEdgeStyle;rounded=0;orthogonalLoop=1;jettySize=auto;html=1;" edge="1" parent="1" source="9-CS1UIOnBhrdMq_kwQL-1" target="rAoNcaFQ0cFfPluoz4KQ-20">
          <mxGeometry relative="1" as="geometry" />
        </mxCell>
        <mxCell id="9-CS1UIOnBhrdMq_kwQL-1" value="MarioKartGame" style="swimlane;fontStyle=1;align=center;verticalAlign=top;childLayout=stackLayout;horizontal=1;startSize=26;horizontalStack=0;resizeParent=1;resizeParentMax=0;resizeLast=0;collapsible=1;marginBottom=0;whiteSpace=wrap;html=1;" vertex="1" parent="1">
          <mxGeometry x="262" y="390" width="160" height="138" as="geometry" />
        </mxCell>
        <mxCell id="9-CS1UIOnBhrdMq_kwQL-2" value="+ String level" style="text;strokeColor=none;fillColor=none;align=left;verticalAlign=top;spacingLeft=4;spacingRight=4;overflow=hidden;rotatable=0;points=[[0,0.5],[1,0.5]];portConstraint=eastwest;whiteSpace=wrap;html=1;" vertex="1" parent="9-CS1UIOnBhrdMq_kwQL-1">
          <mxGeometry y="26" width="160" height="26" as="geometry" />
        </mxCell>
        <mxCell id="9-CS1UIOnBhrdMq_kwQL-14" value="+ List&amp;lt;String&amp;gt; characters" style="text;strokeColor=none;fillColor=none;align=left;verticalAlign=top;spacingLeft=4;spacingRight=4;overflow=hidden;rotatable=0;points=[[0,0.5],[1,0.5]];portConstraint=eastwest;whiteSpace=wrap;html=1;" vertex="1" parent="9-CS1UIOnBhrdMq_kwQL-1">
          <mxGeometry y="52" width="160" height="26" as="geometry" />
        </mxCell>
        <mxCell id="9-CS1UIOnBhrdMq_kwQL-3" value="" style="line;strokeWidth=1;fillColor=none;align=left;verticalAlign=middle;spacingTop=-1;spacingLeft=3;spacingRight=3;rotatable=0;labelPosition=right;points=[];portConstraint=eastwest;strokeColor=inherit;" vertex="1" parent="9-CS1UIOnBhrdMq_kwQL-1">
          <mxGeometry y="78" width="160" height="8" as="geometry" />
        </mxCell>
        <mxCell id="9-CS1UIOnBhrdMq_kwQL-4" value="+ clone(): RancingGame" style="text;strokeColor=none;fillColor=none;align=left;verticalAlign=top;spacingLeft=4;spacingRight=4;overflow=hidden;rotatable=0;points=[[0,0.5],[1,0.5]];portConstraint=eastwest;whiteSpace=wrap;html=1;" vertex="1" parent="9-CS1UIOnBhrdMq_kwQL-1">
          <mxGeometry y="86" width="160" height="26" as="geometry" />
        </mxCell>
        <mxCell id="9-CS1UIOnBhrdMq_kwQL-23" value="+ play(): void" style="text;strokeColor=none;fillColor=none;align=left;verticalAlign=top;spacingLeft=4;spacingRight=4;overflow=hidden;rotatable=0;points=[[0,0.5],[1,0.5]];portConstraint=eastwest;whiteSpace=wrap;html=1;" vertex="1" parent="9-CS1UIOnBhrdMq_kwQL-1">
          <mxGeometry y="112" width="160" height="26" as="geometry" />
        </mxCell>
        <mxCell id="9-CS1UIOnBhrdMq_kwQL-15" style="rounded=0;orthogonalLoop=1;jettySize=auto;html=1;dashed=1;strokeColor=default;endArrow=none;startFill=0;" edge="1" parent="1" source="9-CS1UIOnBhrdMq_kwQL-4" target="9-CS1UIOnBhrdMq_kwQL-18">
          <mxGeometry relative="1" as="geometry">
            <mxPoint x="460" y="479.5" as="targetPoint" />
          </mxGeometry>
        </mxCell>
        <mxCell id="9-CS1UIOnBhrdMq_kwQL-18" value="&lt;b style=&quot;text-align: center;&quot;&gt;return new MarioKartGame(this)&lt;/b&gt;" style="shape=note;size=15;align=left;spacingLeft=10;html=1;whiteSpace=wrap;fillColor=#f5f5f5;fontColor=#333333;strokeColor=#666666;" vertex="1" parent="1">
          <mxGeometry x="460" y="462" width="210" height="40" as="geometry" />
        </mxCell>
      </root>
    </mxGraphModel>
  </diagram>
</mxfile>
